<svg width="92" height="92" viewBox="0 0 92 92" fill="none" xmlns="http://www.w3.org/2000/svg">
<path d="M24.1271 18.5341L15.9659 67.7388C15.2759 71.8826 14.9348 73.9565 16.0809 75.3096C17.2194 76.6666 19.3086 76.6666 23.4907 76.6666H25.0318C28.1866 76.6666 29.7621 76.6666 30.8393 75.7313C31.9126 74.7921 32.1388 73.2243 32.5834 70.0848L34.3774 57.4731C34.5193 56.4765 34.5883 55.9781 34.6994 55.5526C35.0846 54.0614 35.9122 52.7216 37.0733 51.7097C38.2344 50.6977 39.6747 50.061 41.2046 49.8831C41.6377 49.8333 42.1399 49.8333 43.1404 49.8333H47.5948C53.3678 49.8232 58.9658 47.8496 63.4688 44.2369C67.9718 40.6242 71.112 35.5872 72.3734 29.9536C74.9571 18.538 66.3244 7.66663 54.6749 7.66663H36.8883C32.6179 7.66663 30.4866 7.66663 28.7999 8.56746C27.8416 9.08113 26.9982 9.79413 26.3389 10.6643C25.1774 12.1861 24.8286 14.3021 24.1271 18.5341Z" stroke="black" stroke-width="1.5" stroke-linecap="round" stroke-linejoin="round"/>
<path d="M31.5981 74.75L30.7241 79.856C30.3216 82.1943 32.1425 84.3333 34.5421 84.3333H42.1705C44.068 84.3333 45.6856 82.9763 45.9961 81.1287L48.7945 64.5342C49.1011 62.6865 50.7226 61.3333 52.6163 61.3333H59.5278C69.4216 61.3333 77.9891 54.5368 80.1358 44.9842C81.6385 38.295 78.3686 31.855 72.8333 28.75" stroke="black" stroke-width="1.5" stroke-linecap="round" stroke-linejoin="round"/>
</svg>
