<svg width="75" height="75" viewBox="0 0 75 75" fill="none" xmlns="http://www.w3.org/2000/svg">
<path d="M25 59.375C26.6576 59.375 28.2473 58.7165 29.4194 57.5444C30.5915 56.3723 31.25 54.7826 31.25 53.125C31.25 51.4674 30.5915 49.8777 29.4194 48.7056C28.2473 47.5335 26.6576 46.875 25 46.875C23.3424 46.875 21.7527 47.5335 20.5806 48.7056C19.4085 49.8777 18.75 51.4674 18.75 53.125C18.75 54.7826 19.4085 56.3723 20.5806 57.5444C21.7527 58.7165 23.3424 59.375 25 59.375ZM56.25 59.375C57.9076 59.375 59.4973 58.7165 60.6694 57.5444C61.8415 56.3723 62.5 54.7826 62.5 53.125C62.5 51.4674 61.8415 49.8777 60.6694 48.7056C59.4973 47.5335 57.9076 46.875 56.25 46.875C54.5924 46.875 53.0027 47.5335 51.8306 48.7056C50.6585 49.8777 50 51.4674 50 53.125C50 54.7826 50.6585 56.3723 51.8306 57.5444C53.0027 58.7165 54.5924 59.375 56.25 59.375Z" stroke="black" stroke-width="1.5" stroke-miterlimit="1.5" stroke-linecap="round" stroke-linejoin="round"/>
<path d="M31.4063 53.125H46.875V20.625C46.875 20.1277 46.6775 19.6508 46.3258 19.2992C45.9742 18.9475 45.4973 18.75 45 18.75H3.125M17.6563 53.125H11.25C11.0038 53.125 10.76 53.0765 10.5325 52.9823C10.305 52.888 10.0983 52.7499 9.92417 52.5758C9.75006 52.4017 9.61195 52.195 9.51773 51.9675C9.4235 51.74 9.375 51.4962 9.375 51.25V35.9375" stroke="black" stroke-width="1.5" stroke-linecap="round"/>
<path d="M6.25 28.125H18.75" stroke="black" stroke-width="1.5" stroke-linecap="round" stroke-linejoin="round"/>
<path d="M46.875 28.125H64.4063C64.7687 28.1251 65.1233 28.2302 65.4272 28.4277C65.7312 28.6251 65.9714 28.9064 66.1188 29.2375L71.7125 41.825C71.8191 42.064 71.8744 42.3227 71.875 42.5844V51.25C71.875 51.4962 71.8265 51.74 71.7323 51.9675C71.638 52.195 71.4999 52.4017 71.3258 52.5758C71.1517 52.7499 70.945 52.888 70.7175 52.9823C70.49 53.0765 70.2462 53.125 70 53.125H64.0625M46.875 53.125H50" stroke="black" stroke-width="1.5" stroke-linecap="round"/>
</svg>
