<svg width="92" height="92" viewBox="0 0 92 92" fill="none" xmlns="http://www.w3.org/2000/svg">
<path d="M83.375 80.5H8.625C3.8525 80.5 0 76.6475 0 71.875V20.125C0 15.3525 3.8525 11.5 8.625 11.5H83.375C88.1475 11.5 92 15.3525 92 20.125V71.875C92 76.6475 88.1475 80.5 83.375 80.5ZM8.625 17.25C7.015 17.25 5.75 18.515 5.75 20.125V71.875C5.75 73.485 7.015 74.75 8.625 74.75H83.375C84.985 74.75 86.25 73.485 86.25 71.875V20.125C86.25 18.515 84.985 17.25 83.375 17.25H8.625Z" fill="black"/>
<path d="M75.8425 36.9724H71.53C70.2075 36.9724 69.23 37.3749 68.5975 38.6974L60.3175 57.5574H66.1825C66.1825 57.5574 67.2175 55.0274 67.39 54.4524H74.5775C74.8075 55.1424 75.2675 57.4999 75.2675 57.4999H80.5L75.8425 37.0299V36.9724ZM69 50.1974C69.5175 48.9899 71.2425 44.4474 71.2425 44.4474C71.2425 44.5624 71.76 43.2399 71.9325 42.5499L72.335 44.3899L73.6575 50.3699H69V50.2549V50.1974ZM60.72 50.7724C60.72 55.0274 56.8675 57.8449 50.945 57.8449C48.415 57.8449 46 57.3274 44.6775 56.7524L45.4825 52.0949L46.1725 52.3824C48.0125 53.1874 49.22 53.4749 51.405 53.4749C53.015 53.4749 54.74 52.8424 54.74 51.4624C54.74 50.5424 54.05 49.9674 51.8075 48.9324C49.68 47.8974 46.8625 46.2874 46.8625 43.4124C46.8625 39.3874 50.7725 36.6274 56.35 36.6274C58.4775 36.6274 60.26 37.0299 61.41 37.5474L60.605 41.9749L60.2025 41.5724C59.1675 41.1699 57.9025 40.7674 55.9475 40.7674C53.82 40.8824 52.8425 41.8024 52.8425 42.6074C52.8425 43.5274 54.05 44.2174 55.9475 45.1374C59.1675 46.6324 60.6625 48.3574 60.6625 50.7724H60.72ZM11.5 37.1449L11.615 36.7424H20.2975C21.505 36.7424 22.425 37.1449 22.7125 38.4674L24.61 47.5524C22.7125 42.7224 18.2275 38.7549 11.5 37.1449Z" fill="black"/>
<path d="M36.8 36.9725L28.0025 57.4425H22.0225L16.9625 40.3075C20.585 42.6075 23.6325 46.2875 24.725 48.76L25.3575 50.8875L30.82 36.8575H36.8V36.9725ZM39.1575 36.8575H44.6775L41.17 57.4425H35.65L39.1575 36.8575Z" fill="black"/>
</svg>
