<svg width="110" height="85" viewBox="0 0 110 85" fill="none" xmlns="http://www.w3.org/2000/svg">
<g clip-path="url(#clip0_22_125)">
<path d="M19.8789 84.5775V78.9517C19.8789 76.7947 18.5658 75.3885 16.3153 75.3885C15.1902 75.3885 13.9711 75.7636 13.1271 76.9826C12.471 75.9511 11.5335 75.3885 10.1269 75.3885C9.18894 75.3885 8.2518 75.6696 7.50132 76.7011V75.576H5.53223V84.5775H7.50132V79.6078C7.50132 78.0141 8.34534 77.2637 9.65836 77.2637C10.9705 77.2637 11.6275 78.1077 11.6275 79.6078V84.5775H13.5965V79.6078C13.5965 78.0141 14.5337 77.2637 15.7527 77.2637C17.0657 77.2637 17.7218 78.1077 17.7218 79.6078V84.5775H19.8789ZM49.0398 75.576H45.8521V72.8569H43.883V75.576H42.1014V77.3572H43.8826V81.4833C43.8826 83.5464 44.7266 84.765 46.9772 84.765C47.8212 84.765 48.7584 84.484 49.4153 84.1089L48.8523 82.4209C48.2898 82.7959 47.6337 82.8899 47.1647 82.8899C46.2271 82.8899 45.8521 82.3274 45.8521 81.3894V77.3572H49.0398V75.576ZM65.7306 75.3881C64.6055 75.3881 63.8555 75.9511 63.3865 76.7011V75.576H61.4174V84.5775H63.3865V79.5142C63.3865 78.0141 64.0426 77.1701 65.2616 77.1701C65.6366 77.1701 66.1056 77.2641 66.4806 77.3576L67.0432 75.4825C66.6682 75.3885 66.1056 75.3885 65.7306 75.3885M40.5074 76.3265C39.5694 75.67 38.2568 75.389 36.8502 75.389C34.6001 75.389 33.1 76.514 33.1 78.2956C33.1 79.7961 34.2251 80.6397 36.1942 80.9212L37.1317 81.0152C38.1633 81.2023 38.7258 81.4838 38.7258 81.9528C38.7258 82.6088 37.9757 83.0778 36.6627 83.0778C35.3497 83.0778 34.3186 82.6088 33.6621 82.1403L32.7245 83.6404C33.7561 84.3904 35.1626 84.7654 36.5688 84.7654C39.1944 84.7654 40.6949 83.5468 40.6949 81.8588C40.6949 80.2647 39.4758 79.4207 37.6003 79.1396L36.6627 79.0457C35.8187 78.9517 35.1626 78.7646 35.1626 78.2021C35.1626 77.5456 35.8187 77.1705 36.8502 77.1705C37.9757 77.1705 39.1008 77.6391 39.6634 77.9206L40.5074 76.3265ZM92.8294 75.389C91.7039 75.389 90.9538 75.9515 90.4848 76.7016V75.5765H88.5157V84.5779H90.4848V79.5147C90.4848 78.0146 91.1413 77.1705 92.3599 77.1705C92.7354 77.1705 93.2044 77.2645 93.5794 77.3581L94.142 75.4829C93.7669 75.389 93.2044 75.389 92.8294 75.389ZM67.6997 80.0772C67.6997 82.7964 69.5748 84.7654 72.4819 84.7654C73.7945 84.7654 74.7321 84.4844 75.6696 83.7343L74.7321 82.1403C73.982 82.7028 73.232 82.9839 72.3879 82.9839C70.7939 82.9839 69.6688 81.8588 69.6688 80.0772C69.6688 78.3896 70.7939 77.2641 72.3879 77.1705C73.232 77.1705 73.982 77.4516 74.7321 78.0146L75.6696 76.4205C74.7321 75.67 73.7945 75.389 72.4819 75.389C69.5748 75.389 67.6997 77.3581 67.6997 80.0772ZM85.8905 80.0772V75.5765H83.9215V76.7016C83.2649 75.858 82.3274 75.389 81.1083 75.389C78.5767 75.389 76.6076 77.3581 76.6076 80.0772C76.6076 82.7964 78.5767 84.7654 81.1083 84.7654C82.4209 84.7654 83.3589 84.2969 83.9215 83.4529V84.5779H85.8905V80.0772ZM78.6702 80.0772C78.6702 78.4831 79.7018 77.1705 81.3894 77.1705C82.9835 77.1705 84.109 78.3896 84.109 80.0772C84.109 81.6713 82.9835 82.9839 81.3894 82.9839C79.7018 82.8899 78.6702 81.6713 78.6702 80.0772ZM55.1351 75.389C52.5095 75.389 50.6339 77.2641 50.6339 80.0772C50.6339 82.8903 52.509 84.7654 55.2286 84.7654C56.5412 84.7654 57.8542 84.3904 58.8857 83.5468L57.9478 82.1403C57.1977 82.7028 56.2601 83.0778 55.3226 83.0778C54.1035 83.0778 52.8845 82.5153 52.603 80.9208H59.2608V80.1712C59.3547 77.2641 57.6671 75.389 55.1351 75.389ZM55.1346 77.0766C56.3533 77.0766 57.1977 77.8271 57.3848 79.2336H52.6965C52.8841 78.0146 53.7281 77.0766 55.1346 77.0766ZM103.987 80.0772V72.0133H102.018V76.7016C101.361 75.858 100.424 75.389 99.2048 75.389C96.6732 75.389 94.7041 77.3581 94.7041 80.0772C94.7041 82.7964 96.6732 84.7654 99.2048 84.7654C100.518 84.7654 101.455 84.2969 102.018 83.4529V84.5779H103.987V80.0772ZM96.7671 80.0772C96.7671 78.4831 97.7982 77.1705 99.4863 77.1705C101.08 77.1705 102.205 78.3896 102.205 80.0772C102.205 81.6713 101.08 82.9839 99.4863 82.9839C97.7982 82.8899 96.7671 81.6713 96.7671 80.0772ZM30.9425 80.0772V75.5765H28.9734V76.7016C28.3169 75.858 27.3794 75.389 26.1603 75.389C23.6287 75.389 21.6596 77.3581 21.6596 80.0772C21.6596 82.7964 23.6287 84.7654 26.1603 84.7654C27.4733 84.7654 28.4109 84.2969 28.9734 83.4529V84.5779H30.9425V80.0772ZM23.6287 80.0772C23.6287 78.4831 24.6602 77.1705 26.3478 77.1705C27.9419 77.1705 29.0674 78.3896 29.0674 80.0772C29.0674 81.6713 27.9419 82.9839 26.3478 82.9839C24.6602 82.8899 23.6287 81.6713 23.6287 80.0772Z" fill="black"/>
<path d="M39.8508 7.21985H69.3873V60.2919H39.8508V7.21985Z" fill="#FF5F00"/>
<path d="M41.7265 33.7561C41.7265 22.9731 46.7897 13.4086 54.5721 7.21987C48.8528 2.71915 41.6329 0 33.7565 0C15.0963 0 0 15.0963 0 33.7561C0 52.416 15.0963 67.5122 33.7561 67.5122C41.6325 67.5122 48.8524 64.7931 54.5721 60.2919C46.7897 54.1971 41.7265 44.5391 41.7265 33.7561Z" fill="#EB001B"/>
<path d="M109.238 33.7561C109.238 52.4155 94.1419 67.5122 75.482 67.5122C67.6057 67.5122 60.3858 64.7931 54.666 60.2919C62.5424 54.1036 67.5121 44.5391 67.5121 33.7561C67.5121 22.9731 62.4484 13.4086 54.666 7.21987C60.3854 2.71915 67.6057 0 75.482 0C94.1419 0 109.238 15.1902 109.238 33.7561Z" fill="#F79E1B"/>
</g>
<defs>
<clipPath id="clip0_22_125">
<rect width="109.347" height="85" fill="white"/>
</clipPath>
</defs>
</svg>
