<svg width="43" height="46" viewBox="0 0 43 46" fill="none" xmlns="http://www.w3.org/2000/svg">
<path d="M21.5 2.30196L22.5589 0.186039C22.2243 0.0632929 21.864 0 21.5 0C21.136 0 20.7757 0.0632929 20.4411 0.186039L21.5 2.30196ZM21.5 43.7005L20.167 45.6968C20.573 45.8953 21.0324 45.9996 21.5 45.9996C21.9676 45.9996 22.427 45.8953 22.833 45.6968L21.5 43.7005ZM20.4411 0.188339L3.25725 6.48781L5.375 10.7197L22.5589 4.41789L20.4411 0.188339ZM4.07962e-07 10.7174V26.4948H5.375V10.7174H4.07962e-07ZM9.47881 40.4714L20.167 45.6968L22.833 41.7041L12.1448 36.4764L9.47881 40.4714ZM22.833 45.6968L33.5212 40.4714L30.8552 36.4764L20.167 41.7041L22.833 45.6968ZM43 26.4925V10.7197H37.625V26.4971L43 26.4925ZM39.7428 6.49011L22.5589 0.188339L20.4411 4.41559L37.625 10.7197L39.7428 6.49011ZM43 10.7197C42.9999 9.81961 42.6912 8.93935 42.1122 8.18796C41.5333 7.43656 40.7094 6.84473 39.7428 6.49011L37.625 10.7197H43ZM33.5212 40.4714C36.4012 39.063 38.7949 37.0303 40.4595 34.5749C42.1242 32.1196 43.0006 29.3312 43 26.4925H37.625C37.6247 28.5198 36.9981 30.5111 35.8088 32.2644C34.6194 34.0178 32.9096 35.4709 30.8525 36.4764L33.5212 40.4714ZM4.07962e-07 26.4925C-0.000148213 29.3308 0.876519 32.1187 2.54115 34.5736C4.20577 37.0285 6.59919 39.0632 9.47881 40.4714L12.1448 36.4764C10.089 35.471 8.38023 34.0185 7.19141 32.266C6.00259 30.5136 5.37597 28.5234 5.375 26.4971L4.07962e-07 26.4925ZM3.25725 6.48781C2.29017 6.84259 1.46603 7.43477 0.887023 8.18662C0.308011 8.93847 -0.00040945 9.81921 4.07962e-07 10.7197H5.375L3.25725 6.48781Z" fill="black"/>
<path d="M29.5625 18.4014L18.8125 27.6011L13.4375 23.0013" stroke="black" stroke-width="2" stroke-linecap="round" stroke-linejoin="round"/>
</svg>
