<svg width="54" height="54" viewBox="0 0 54 54" fill="none" xmlns="http://www.w3.org/2000/svg">
<path d="M37.9485 10.2712C39.9082 9.30598 40.8802 9.43423 40.9027 10.4085C40.9297 11.6797 40.743 13.3627 40.608 14.5867C39.8812 21.2175 38.664 26.6377 38.5695 33.4485C41.7735 25.155 44.4622 19.3905 47.9205 12.2917C49.0185 10.0327 49.7182 10.4512 50.6205 10.0507C54.1372 8.48698 54.27 9.44773 53.8087 11.358C52.1032 18.4455 47.745 40.761 47.0767 44.1967C46.8832 45.1912 45.8032 44.7705 45.522 44.3812C44.271 42.651 42.8602 42.624 43.02 41.472C43.803 35.7435 46.6267 21.3705 47.3625 17.9842C43.6072 25.6792 39.717 35.2957 37.719 40.7497C37.2937 41.9085 36.5242 41.823 36.0427 40.9747C35.3677 39.7845 34.056 39.177 33.84 37.7707C33.1515 33.3 34.623 24.7747 34.8277 19.3837C32.7847 25.2742 29.3535 36.711 27.8505 41.877C27.2295 44.0145 25.1662 43.6657 25.7152 41.5822C27.999 32.9107 32.9175 17.5747 35.0482 12.06C35.5477 10.764 36.8595 10.809 37.9485 10.2712ZM25.4947 9.20473C26.1157 9.35548 26.0662 10.089 25.686 11.0902C24.5632 14.0467 23.0085 17.9302 21.2287 22.5112C22.347 22.383 22.9545 22.3402 22.9545 22.3402C24.5587 22.1422 24.858 22.9455 24.4057 23.7982C24.0457 24.48 23.6115 24.0255 22.1107 26.2642C21.2647 27.5265 19.8832 27.8595 19.1137 28.0282C17.0838 33.3787 15.1656 38.7708 13.3605 44.2012C13.3312 44.3435 13.262 44.4745 13.1608 44.5788C13.0597 44.683 12.9309 44.7563 12.7896 44.7898C12.6482 44.8234 12.5003 44.8159 12.363 44.7682C12.2258 44.7205 12.1051 44.6347 12.015 44.5207C11.1105 43.2562 10.4445 43.2157 9.74249 42.1942C9.65924 42.0277 9.49499 41.805 9.59399 41.3977C10.1092 39.2917 11.4772 34.965 13.5585 29.2657C10.9372 29.835 8.09999 30.4447 6.92774 30.717C5.52834 34.4098 4.17 38.118 2.85299 41.841C2.04749 44.1247 -0.0495139 43.6837 0.686236 41.5237C1.88923 38.0148 3.14412 34.524 4.45049 31.0522C2.99699 30.897 2.50649 29.871 1.69424 29.0137C1.38149 28.683 0.697486 28.7302 0.362236 28.2667C-0.238514 27.432 -0.180014 27.0607 1.21049 26.6602C3.02442 26.1365 4.84879 25.6496 6.68249 25.2C8.50781 20.504 10.3754 15.8246 12.285 11.1622C13.158 9.02248 15.4057 9.22273 14.553 11.331C12.7643 15.7385 11.0063 20.1583 9.27899 24.5902C11.4454 24.1017 13.6241 23.6696 15.813 23.2942C17.4172 19.1745 19.1028 15.087 20.8687 11.034C20.9925 10.7505 21.3525 10.35 21.726 10.287C22.9072 10.0845 24.8287 9.04498 25.4947 9.20473ZM21.4717 36.9585C21.6562 36.8445 21.8392 36.711 22.0207 36.558L21.609 35.3205C21.4725 35.496 21.3382 35.6737 21.2062 35.8537C20.421 36.9315 20.8867 37.3162 21.4717 36.9585ZM22.518 31.8397C23.4922 30.7395 21.5662 30.2805 22.0095 31.9612L22.0995 32.2897C22.2419 32.1425 22.3814 31.9924 22.518 31.8397ZM23.5305 35.154C24.4957 34.317 25.416 35.1472 24.462 36.558C24.2437 36.8845 24.0133 37.2027 23.7712 37.512C23.8717 37.8 23.9767 38.0857 24.0862 38.3692C24.579 39.6337 23.283 39.951 22.8667 38.9025L22.7542 38.6122C21.9667 39.3097 21.0577 39.7485 20.0857 39.4447C18.486 38.9475 18.0787 36.6952 19.5727 34.9605C20.1712 34.2652 20.6212 33.7815 20.9992 33.3967C20.9062 33.0973 20.8177 32.7965 20.7337 32.4945C20.538 31.7925 20.3647 30.9757 21.0667 30.141C22.3852 28.5772 25.443 29.9655 23.895 32.373C23.5074 32.9581 23.0859 33.5201 22.6327 34.056C22.7902 34.5525 22.9492 35.0482 23.1097 35.5432C23.2458 35.409 23.3861 35.2792 23.5305 35.154Z" fill="black"/>
</svg>
