<svg width="56" height="56" viewBox="0 0 56 56" fill="none" xmlns="http://www.w3.org/2000/svg">
<path d="M19.8333 40.2967L28 34.076L36.1667 40.2943L33.1147 30.1817L41.237 24.4277H31.2853L28 13.8203L24.7147 24.4277H14.763L22.883 30.1817L19.8333 40.2967ZM28.007 49C25.1043 49 22.3743 48.4493 19.817 47.348C17.2612 46.2451 15.0376 44.7487 13.146 42.8587C11.2544 40.9687 9.75722 38.7473 8.65433 36.1947C7.55144 33.642 7 30.9128 7 28.007C7 25.1012 7.55144 22.3712 8.65433 19.817C9.75567 17.2612 11.2498 15.0376 13.1367 13.146C15.0236 11.2544 17.2457 9.75722 19.803 8.65433C22.3603 7.55144 25.0903 7 27.993 7C30.8957 7 33.6257 7.55144 36.183 8.65433C38.7388 9.75567 40.9624 11.2506 42.854 13.139C44.7456 15.0274 46.2428 17.2496 47.3457 19.8053C48.4486 22.3611 49 25.0903 49 27.993C49 30.8957 48.4493 33.6257 47.348 36.183C46.2467 38.7403 44.7502 40.964 42.8587 42.854C40.9671 44.744 38.7458 46.2412 36.1947 47.3457C33.6436 48.4501 30.9143 49.0016 28.007 49ZM28 46.6667C33.2111 46.6667 37.625 44.8583 41.2417 41.2417C44.8583 37.625 46.6667 33.2111 46.6667 28C46.6667 22.7889 44.8583 18.375 41.2417 14.7583C37.625 11.1417 33.2111 9.33333 28 9.33333C22.7889 9.33333 18.375 11.1417 14.7583 14.7583C11.1417 18.375 9.33333 22.7889 9.33333 28C9.33333 33.2111 11.1417 37.625 14.7583 41.2417C18.375 44.8583 22.7889 46.6667 28 46.6667Z" fill="black"/>
</svg>
