<svg width="67" height="47" viewBox="0 0 67 47" fill="none" xmlns="http://www.w3.org/2000/svg">
<path d="M66.1685 0L18.0176 41.3343C14.0247 44.7438 10.6717 46.4486 7.95852 46.4486C4.88704 46.4486 2.65931 44.2794 1.27532 39.941C0.406893 37.1545 0.150937 33.6196 0.507447 29.3365C0.865786 25.0535 1.81282 20.4866 3.34856 15.6358C4.62834 11.7103 6.7281 6.54995 9.64783 0.15481C8.6562 3.29789 7.92969 6.75045 7.4978 10.3723C6.72993 16.9775 7.42101 21.8282 9.57104 24.9244C10.5949 26.3693 12.0026 27.0918 13.7943 27.0918C15.2259 27.0918 16.8384 26.6274 18.6319 25.6985L66.1685 0Z" fill="black"/>
</svg>
