<svg width="72" height="72" viewBox="0 0 72 72" fill="none" xmlns="http://www.w3.org/2000/svg">
<path d="M25.686 21L25.692 21.018L34.074 43.881V22.191H30.624V21.981H42.504C48.213 21.981 52.197 24.909 52.197 29.106C52.197 32.166 49.467 34.71 45.408 35.433L44.661 35.526L45.411 35.604C47.874 35.886 49.83 36.642 51.216 37.854L51.225 37.863L57.423 21H57.633L57.639 21.018L68.307 50.112H72V50.322H60.246V50.112H63.708L60.198 40.545H53.079V40.551L53.118 40.662C53.4 41.505 53.544 42.39 53.535 43.281V46.869C53.535 48.714 54.348 50.583 55.905 50.583C56.817 50.583 57.546 50.262 58.416 49.467L58.539 49.581C57.597 50.577 56.454 51 54.741 51C53.451 51 52.341 50.688 51.453 50.076L51.285 49.956C50.115 49.068 49.353 47.622 49.026 45.651L48.972 45.333L48.918 44.853L48.912 44.769L46.95 50.109H49.734V50.319H43.908V50.109H46.722L48.876 44.247V44.232C48.853 43.8864 48.84 43.5403 48.837 43.194V40.632C48.837 37.485 46.497 35.682 42.417 35.682H38.406V50.112H41.88V50.322H28.299V50.112H31.761L28.251 40.545H18.516L15.042 50.007L15.186 49.983C19.749 49.197 21.846 45.714 21.876 42.048H22.086V50.322H0L16.395 22.191H9.804C4.338 22.191 1.866 26.412 1.827 30.621H1.62V21.981H21.522L21.402 22.191L5.127 50.112H13.689C13.901 50.112 14.113 50.103 14.325 50.085L14.541 50.067L14.811 50.037L25.473 21H25.686ZM55.335 27.285L51.396 38.013L51.417 38.034L51.618 38.232C52.197 38.823 52.659 39.522 52.974 40.284L52.995 40.335H60.12L55.335 27.285ZM23.391 27.285L18.594 40.335H28.176L23.391 27.285ZM41.469 22.191H38.409V35.472H42.417C46.476 35.472 47.718 33.993 47.718 29.151C47.718 24.6 45.558 22.191 41.469 22.191Z" fill="black"/>
</svg>
