<svg width="0" height="0" class="hidden">
  <symbol fill="none" xmlns="http://www.w3.org/2000/svg" viewBox="0 0 92 92" id="formkit_visa (1)">
    <path d="M83.375 80.5H8.625C3.8525 80.5 0 76.6475 0 71.875V20.125C0 15.3525 3.8525 11.5 8.625 11.5H83.375C88.1475 11.5 92 15.3525 92 20.125V71.875C92 76.6475 88.1475 80.5 83.375 80.5ZM8.625 17.25C7.015 17.25 5.75 18.515 5.75 20.125V71.875C5.75 73.485 7.015 74.75 8.625 74.75H83.375C84.985 74.75 86.25 73.485 86.25 71.875V20.125C86.25 18.515 84.985 17.25 83.375 17.25H8.625Z" fill="black"></path>
    <path d="M75.8425 36.9724H71.53C70.2075 36.9724 69.23 37.3749 68.5975 38.6974L60.3175 57.5574H66.1825C66.1825 57.5574 67.2175 55.0274 67.39 54.4524H74.5775C74.8075 55.1424 75.2675 57.4999 75.2675 57.4999H80.5L75.8425 37.0299V36.9724ZM69 50.1974C69.5175 48.9899 71.2425 44.4474 71.2425 44.4474C71.2425 44.5624 71.76 43.2399 71.9325 42.5499L72.335 44.3899L73.6575 50.3699H69V50.2549V50.1974ZM60.72 50.7724C60.72 55.0274 56.8675 57.8449 50.945 57.8449C48.415 57.8449 46 57.3274 44.6775 56.7524L45.4825 52.0949L46.1725 52.3824C48.0125 53.1874 49.22 53.4749 51.405 53.4749C53.015 53.4749 54.74 52.8424 54.74 51.4624C54.74 50.5424 54.05 49.9674 51.8075 48.9324C49.68 47.8974 46.8625 46.2874 46.8625 43.4124C46.8625 39.3874 50.7725 36.6274 56.35 36.6274C58.4775 36.6274 60.26 37.0299 61.41 37.5474L60.605 41.9749L60.2025 41.5724C59.1675 41.1699 57.9025 40.7674 55.9475 40.7674C53.82 40.8824 52.8425 41.8024 52.8425 42.6074C52.8425 43.5274 54.05 44.2174 55.9475 45.1374C59.1675 46.6324 60.6625 48.3574 60.6625 50.7724H60.72ZM11.5 37.1449L11.615 36.7424H20.2975C21.505 36.7424 22.425 37.1449 22.7125 38.4674L24.61 47.5524C22.7125 42.7224 18.2275 38.7549 11.5 37.1449Z" fill="black"></path>
    <path d="M36.8 36.9725L28.0025 57.4425H22.0225L16.9625 40.3075C20.585 42.6075 23.6325 46.2875 24.725 48.76L25.3575 50.8875L30.82 36.8575H36.8V36.9725ZM39.1575 36.8575H44.6775L41.17 57.4425H35.65L39.1575 36.8575Z" fill="black"></path>
  </symbol>
  <symbol fill="none" xmlns="http://www.w3.org/2000/svg" viewBox="0 0 43 46" id="Group (1)">
    <path d="M21.5 2.30196L22.5589 0.186039C22.2243 0.0632929 21.864 0 21.5 0C21.136 0 20.7757 0.0632929 20.4411 0.186039L21.5 2.30196ZM21.5 43.7005L20.167 45.6968C20.573 45.8953 21.0324 45.9996 21.5 45.9996C21.9676 45.9996 22.427 45.8953 22.833 45.6968L21.5 43.7005ZM20.4411 0.188339L3.25725 6.48781L5.375 10.7197L22.5589 4.41789L20.4411 0.188339ZM4.07962e-07 10.7174V26.4948H5.375V10.7174H4.07962e-07ZM9.47881 40.4714L20.167 45.6968L22.833 41.7041L12.1448 36.4764L9.47881 40.4714ZM22.833 45.6968L33.5212 40.4714L30.8552 36.4764L20.167 41.7041L22.833 45.6968ZM43 26.4925V10.7197H37.625V26.4971L43 26.4925ZM39.7428 6.49011L22.5589 0.188339L20.4411 4.41559L37.625 10.7197L39.7428 6.49011ZM43 10.7197C42.9999 9.8196 42.6912 8.93935 42.1122 8.18796C41.5333 7.43656 40.7094 6.84473 39.7428 6.49011L37.625 10.7197H43ZM33.5212 40.4714C36.4012 39.063 38.7949 37.0303 40.4595 34.5749C42.1242 32.1196 43.0006 29.3312 43 26.4925H37.625C37.6247 28.5198 36.9981 30.5111 35.8088 32.2644C34.6194 34.0178 32.9096 35.4709 30.8525 36.4764L33.5212 40.4714ZM4.07962e-07 26.4925C-0.000148213 29.3308 0.876519 32.1187 2.54115 34.5736C4.20577 37.0285 6.59919 39.0632 9.47881 40.4714L12.1448 36.4764C10.089 35.471 8.38023 34.0185 7.19141 32.266C6.00259 30.5136 5.37597 28.5234 5.375 26.4971L4.07962e-07 26.4925ZM3.25725 6.48781C2.29017 6.84259 1.46603 7.43477 0.887023 8.18662C0.308011 8.93847 -0.00040945 9.81921 4.07962e-07 10.7197H5.375L3.25725 6.48781Z" fill="black"></path>
    <path d="M29.5625 18.4014L18.8125 27.6011L13.4375 23.0013" stroke="black" stroke-width="2" stroke-linecap="round" stroke-linejoin="round"></path>
  </symbol>
  <symbol fill="none" xmlns="http://www.w3.org/2000/svg" viewBox="0 0 92 92" id="hugeicons_paypal (1)">
    <path d="M24.1271 18.5341L15.9659 67.7388C15.2759 71.8826 14.9348 73.9565 16.0809 75.3096C17.2194 76.6666 19.3086 76.6666 23.4907 76.6666H25.0318C28.1866 76.6666 29.7621 76.6666 30.8393 75.7313C31.9126 74.7921 32.1388 73.2243 32.5834 70.0848L34.3774 57.4731C34.5193 56.4765 34.5883 55.9781 34.6994 55.5526C35.0846 54.0614 35.9122 52.7216 37.0733 51.7097C38.2344 50.6977 39.6747 50.061 41.2046 49.8831C41.6377 49.8333 42.1399 49.8333 43.1404 49.8333H47.5948C53.3678 49.8232 58.9658 47.8496 63.4688 44.2369C67.9718 40.6242 71.112 35.5872 72.3734 29.9536C74.9571 18.538 66.3244 7.66663 54.6749 7.66663H36.8883C32.6179 7.66663 30.4866 7.66663 28.7999 8.56746C27.8416 9.08113 26.9982 9.79413 26.3389 10.6643C25.1774 12.1861 24.8286 14.3021 24.1271 18.5341Z" stroke="black" stroke-width="1.5" stroke-linecap="round" stroke-linejoin="round"></path>
    <path d="M31.5981 74.75L30.7241 79.856C30.3216 82.1943 32.1425 84.3333 34.5421 84.3333H42.1705C44.068 84.3333 45.6856 82.9763 45.9961 81.1287L48.7945 64.5342C49.1011 62.6865 50.7226 61.3333 52.6163 61.3333H59.5278C69.4216 61.3333 77.9891 54.5368 80.1358 44.9842C81.6385 38.295 78.3686 31.855 72.8333 28.75" stroke="black" stroke-width="1.5" stroke-linecap="round" stroke-linejoin="round"></path>
  </symbol>
  <symbol fill="none" xmlns="http://www.w3.org/2000/svg" viewBox="0 0 75 75" id="iconoir_delivery-truck (1)">
    <path d="M25 59.375C26.6576 59.375 28.2473 58.7165 29.4194 57.5444C30.5915 56.3723 31.25 54.7826 31.25 53.125C31.25 51.4674 30.5915 49.8777 29.4194 48.7056C28.2473 47.5335 26.6576 46.875 25 46.875C23.3424 46.875 21.7527 47.5335 20.5806 48.7056C19.4085 49.8777 18.75 51.4674 18.75 53.125C18.75 54.7826 19.4085 56.3723 20.5806 57.5444C21.7527 58.7165 23.3424 59.375 25 59.375ZM56.25 59.375C57.9076 59.375 59.4973 58.7165 60.6694 57.5444C61.8415 56.3723 62.5 54.7826 62.5 53.125C62.5 51.4674 61.8415 49.8777 60.6694 48.7056C59.4973 47.5335 57.9076 46.875 56.25 46.875C54.5924 46.875 53.0027 47.5335 51.8306 48.7056C50.6585 49.8777 50 51.4674 50 53.125C50 54.7826 50.6585 56.3723 51.8306 57.5444C53.0027 58.7165 54.5924 59.375 56.25 59.375Z" stroke="black" stroke-width="1.5" stroke-miterlimit="1.5" stroke-linecap="round" stroke-linejoin="round"></path>
    <path d="M31.4063 53.125H46.875V20.625C46.875 20.1277 46.6775 19.6508 46.3258 19.2992C45.9742 18.9475 45.4973 18.75 45 18.75H3.125M17.6563 53.125H11.25C11.0038 53.125 10.76 53.0765 10.5325 52.9823C10.305 52.888 10.0983 52.7499 9.92417 52.5758C9.75006 52.4017 9.61195 52.195 9.51773 51.9675C9.4235 51.74 9.375 51.4962 9.375 51.25V35.9375" stroke="black" stroke-width="1.5" stroke-linecap="round"></path>
    <path d="M6.25 28.125H18.75" stroke="black" stroke-width="1.5" stroke-linecap="round" stroke-linejoin="round"></path>
    <path d="M46.875 28.125H64.4063C64.7687 28.1251 65.1233 28.2302 65.4272 28.4277C65.7312 28.6251 65.9714 28.9064 66.1188 29.2375L71.7125 41.825C71.8191 42.064 71.8744 42.3227 71.875 42.5844V51.25C71.875 51.4962 71.8265 51.74 71.7323 51.9675C71.638 52.195 71.4999 52.4017 71.3258 52.5758C71.1517 52.7499 70.945 52.888 70.7175 52.9823C70.49 53.0765 70.2462 53.125 70 53.125H64.0625M46.875 53.125H50" stroke="black" stroke-width="1.5" stroke-linecap="round"></path>
  </symbol>
  <symbol fill="none" xmlns="http://www.w3.org/2000/svg" viewBox="0 0 110 85" id="logos_mastercard (1)">
    <g clip-path="url(#clip0_22_125)">
      <path d="M19.8789 84.5775V78.9517C19.8789 76.7947 18.5658 75.3885 16.3153 75.3885C15.1902 75.3885 13.9711 75.7636 13.1271 76.9826C12.471 75.9511 11.5335 75.3885 10.1269 75.3885C9.18894 75.3885 8.2518 75.6696 7.50132 76.7011V75.576H5.53223V84.5775H7.50132V79.6078C7.50132 78.0141 8.34534 77.2637 9.65836 77.2637C10.9705 77.2637 11.6275 78.1077 11.6275 79.6078V84.5775H13.5965V79.6078C13.5965 78.0141 14.5337 77.2637 15.7527 77.2637C17.0657 77.2637 17.7218 78.1077 17.7218 79.6078V84.5775H19.8789ZM49.0398 75.576H45.8521V72.8569H43.883V75.576H42.1014V77.3572H43.8826V81.4833C43.8826 83.5464 44.7266 84.765 46.9772 84.765C47.8212 84.765 48.7584 84.484 49.4153 84.1089L48.8523 82.4209C48.2898 82.7959 47.6337 82.8899 47.1647 82.8899C46.2271 82.8899 45.8521 82.3274 45.8521 81.3894V77.3572H49.0398V75.576ZM65.7306 75.3881C64.6055 75.3881 63.8555 75.9511 63.3865 76.7011V75.576H61.4174V84.5775H63.3865V79.5142C63.3865 78.0141 64.0426 77.1701 65.2616 77.1701C65.6366 77.1701 66.1056 77.2641 66.4806 77.3576L67.0432 75.4825C66.6682 75.3885 66.1056 75.3885 65.7306 75.3885M40.5074 76.3265C39.5694 75.67 38.2568 75.389 36.8502 75.389C34.6001 75.389 33.1 76.514 33.1 78.2956C33.1 79.7961 34.2251 80.6397 36.1942 80.9212L37.1317 81.0152C38.1633 81.2023 38.7258 81.4838 38.7258 81.9528C38.7258 82.6088 37.9757 83.0778 36.6627 83.0778C35.3497 83.0778 34.3186 82.6088 33.6621 82.1403L32.7245 83.6404C33.7561 84.3904 35.1626 84.7654 36.5688 84.7654C39.1944 84.7654 40.6949 83.5468 40.6949 81.8588C40.6949 80.2647 39.4758 79.4207 37.6003 79.1396L36.6627 79.0457C35.8187 78.9517 35.1626 78.7646 35.1626 78.2021C35.1626 77.5456 35.8187 77.1705 36.8502 77.1705C37.9757 77.1705 39.1008 77.6391 39.6634 77.9206L40.5074 76.3265ZM92.8294 75.389C91.7039 75.389 90.9538 75.9515 90.4848 76.7016V75.5765H88.5157V84.5779H90.4848V79.5147C90.4848 78.0146 91.1413 77.1705 92.3599 77.1705C92.7354 77.1705 93.2044 77.2645 93.5794 77.3581L94.142 75.4829C93.7669 75.389 93.2044 75.389 92.8294 75.389ZM67.6997 80.0772C67.6997 82.7964 69.5748 84.7654 72.4819 84.7654C73.7945 84.7654 74.7321 84.4844 75.6696 83.7343L74.732 82.1403C73.982 82.7028 73.232 82.9839 72.3879 82.9839C70.7939 82.9839 69.6688 81.8588 69.6688 80.0772C69.6688 78.3896 70.7939 77.2641 72.3879 77.1705C73.232 77.1705 73.982 77.4516 74.732 78.0146L75.6696 76.4205C74.7321 75.67 73.7945 75.389 72.4819 75.389C69.5748 75.389 67.6997 77.3581 67.6997 80.0772ZM85.8905 80.0772V75.5765H83.9215V76.7016C83.2649 75.858 82.3274 75.389 81.1083 75.389C78.5767 75.389 76.6076 77.3581 76.6076 80.0772C76.6076 82.7964 78.5767 84.7654 81.1083 84.7654C82.4209 84.7654 83.3589 84.2969 83.9215 83.4529V84.5779H85.8905V80.0772ZM78.6702 80.0772C78.6702 78.4831 79.7018 77.1705 81.3894 77.1705C82.9835 77.1705 84.109 78.3896 84.109 80.0772C84.109 81.6713 82.9835 82.9839 81.3894 82.9839C79.7018 82.8899 78.6702 81.6713 78.6702 80.0772ZM55.1351 75.389C52.5095 75.389 50.6339 77.2641 50.6339 80.0772C50.6339 82.8903 52.509 84.7654 55.2286 84.7654C56.5412 84.7654 57.8542 84.3904 58.8857 83.5468L57.9478 82.1403C57.1977 82.7028 56.2601 83.0778 55.3226 83.0778C54.1035 83.0778 52.8845 82.5153 52.603 80.9208H59.2608V80.1712C59.3547 77.2641 57.6671 75.389 55.1351 75.389ZM55.1346 77.0766C56.3533 77.0766 57.1977 77.8271 57.3848 79.2336H52.6965C52.8841 78.0146 53.7281 77.0766 55.1346 77.0766ZM103.987 80.0772V72.0133H102.018V76.7016C101.361 75.858 100.424 75.389 99.2048 75.389C96.6732 75.389 94.7041 77.3581 94.7041 80.0772C94.7041 82.7964 96.6732 84.7654 99.2048 84.7654C100.518 84.7654 101.455 84.2969 102.018 83.4529V84.5779H103.987V80.0772ZM96.7671 80.0772C96.7671 78.4831 97.7982 77.1705 99.4863 77.1705C101.08 77.1705 102.205 78.3896 102.205 80.0772C102.205 81.6713 101.08 82.9839 99.4863 82.9839C97.7982 82.8899 96.7671 81.6713 96.7671 80.0772ZM30.9425 80.0772V75.5765H28.9734V76.7016C28.3169 75.858 27.3794 75.389 26.1603 75.389C23.6287 75.389 21.6596 77.3581 21.6596 80.0772C21.6596 82.7964 23.6287 84.7654 26.1603 84.7654C27.4733 84.7654 28.4109 84.2969 28.9734 83.4529V84.5779H30.9425V80.0772ZM23.6287 80.0772C23.6287 78.4831 24.6602 77.1705 26.3478 77.1705C27.9419 77.1705 29.0674 78.3896 29.0674 80.0772C29.0674 81.6713 27.9419 82.9839 26.3478 82.9839C24.6602 82.8899 23.6287 81.6713 23.6287 80.0772Z" fill="black"></path>
      <path d="M39.8508 7.21985H69.3873V60.2919H39.8508V7.21985Z" fill="#FF5F00"></path>
      <path d="M41.7265 33.7561C41.7265 22.9731 46.7897 13.4086 54.5721 7.21987C48.8528 2.71915 41.6329 0 33.7565 0C15.0963 0 0 15.0963 0 33.7561C0 52.416 15.0963 67.5122 33.7561 67.5122C41.6325 67.5122 48.8524 64.7931 54.5721 60.2919C46.7897 54.1971 41.7265 44.5392 41.7265 33.7561Z" fill="#EB001B"></path>
      <path d="M109.238 33.7561C109.238 52.4155 94.1419 67.5122 75.482 67.5122C67.6057 67.5122 60.3858 64.7931 54.666 60.2919C62.5424 54.1036 67.5121 44.5392 67.5121 33.7561C67.5121 22.9731 62.4484 13.4086 54.666 7.21987C60.3854 2.71915 67.6057 0 75.482 0C94.1419 0 109.238 15.1902 109.238 33.7561Z" fill="#F79E1B"></path>
    </g>
    <defs>
      <clipPath id="clip0_22_125">
        <rect width="109.347" height="85" fill="white"></rect>
      </clipPath>
    </defs>
  </symbol>
</svg>